<?xml version="1.0" standalone="no"?><!DOCTYPE svg PUBLIC "-//W3C//DTD SVG 1.1//EN" "http://www.w3.org/Graphics/SVG/1.1/DTD/svg11.dtd"><svg t="1684025340040" class="icon" viewBox="0 0 1024 1024" version="1.1" xmlns="http://www.w3.org/2000/svg" p-id="2815" xmlns:xlink="http://www.w3.org/1999/xlink" width="200" height="200"><path d="M85.333333 512a42.666667 42.666667 0 0 1-42.666666-42.666667V256a42.666667 42.666667 0 0 1 85.333333 0v213.333333a42.666667 42.666667 0 0 1-42.666667 42.666667z m896-42.666667V256a42.666667 42.666667 0 0 0-85.333333 0v213.333333a42.666667 42.666667 0 0 0 85.333333 0zM725.333333 0H298.666667a128 128 0 0 0-128 128v341.333333a341.333333 341.333333 0 0 0 280.746666 335.786667 21.333333 21.333333 0 0 1 17.92 20.906667v91.306666a21.333333 21.333333 0 0 1-21.333333 21.333334H384a42.666667 42.666667 0 0 0 0 85.333333h256a42.666667 42.666667 0 0 0 0-85.333333h-64a21.333333 21.333333 0 0 1-21.333333-21.333334v-91.733333a21.333333 21.333333 0 0 1 17.92-20.906667A341.333333 341.333333 0 0 0 853.333333 469.333333V128a128 128 0 0 0-128-128z" fill="#492f0f" p-id="2816"></path></svg>