<?xml version="1.0" standalone="no"?><!DOCTYPE svg PUBLIC "-//W3C//DTD SVG 1.1//EN" "http://www.w3.org/Graphics/SVG/1.1/DTD/svg11.dtd"><svg t="1684025209273" class="icon" viewBox="0 0 1365 1024" version="1.1" xmlns="http://www.w3.org/2000/svg" p-id="4793" xmlns:xlink="http://www.w3.org/1999/xlink" width="266.6015625" height="200"><path d="M1194.666667 0H170.666667a170.666667 170.666667 0 0 0-170.666667 170.666667v682.666666a170.666667 170.666667 0 0 0 170.666667 170.666667h1024a170.666667 170.666667 0 0 0 170.666666-170.666667V170.666667a170.666667 170.666667 0 0 0-170.666666-170.666667z m-398.222223 227.555556a56.888889 56.888889 0 1 1-56.888888 56.888888 56.888889 56.888889 0 0 1 56.888888-56.888888z m0 227.555555a56.888889 56.888889 0 1 1-56.888888 56.888889 56.888889 56.888889 0 0 1 56.888888-56.888889z m-227.555555-227.555555a56.888889 56.888889 0 1 1-56.888889 56.888888 56.888889 56.888889 0 0 1 56.888889-56.888888z m0 227.555555a56.888889 56.888889 0 1 1-56.888889 56.888889 56.888889 56.888889 0 0 1 56.888889-56.888889zM341.333333 227.555556a56.888889 56.888889 0 1 1-56.888889 56.888888 56.888889 56.888889 0 0 1 56.888889-56.888888zM284.444444 512a56.888889 56.888889 0 1 1 56.888889 56.888889 56.888889 56.888889 0 0 1-56.888889-56.888889z m682.666667 284.444444H398.222222a56.888889 56.888889 0 0 1 0-113.777777h568.888889a56.888889 56.888889 0 0 1 0 113.777777z m56.888889-227.555555a56.888889 56.888889 0 1 1 56.888889-56.888889 56.888889 56.888889 0 0 1-56.888889 56.888889z m0-227.555556a56.888889 56.888889 0 1 1 56.888889-56.888889 56.888889 56.888889 0 0 1-56.888889 56.888889z" fill="#492f0f" p-id="4794"></path></svg>